<mxfile host="app.diagrams.net" modified="2023-12-06T13:05:47.003Z" agent="Mozilla/5.0 (Windows NT 10.0; Win64; x64) AppleWebKit/537.36 (KHTML, like Gecko) Chrome/119.0.0.0 Safari/537.36" version="22.1.5" etag="w4cawZojth82jCFZ5hC9" type="github">
  <diagram name="Page-1" id="Z1WgCRJDpfoyfPY4nDIC">
    <mxGraphModel>
      <root>
        <mxCell id="0" />
        <mxCell id="1" parent="0" />
      </root>
    </mxGraphModel>
  </diagram>
</mxfile>
